<svg
   viewBox="0 0 110 110"
   id="svg6"
   sodipodi:docname="typescriptlang-icon.svg"
   width="20"
   height="20"
   inkscape:version="0.92.3 (2405546, 2018-03-11)">
  <g
     transform="matrix(0.01015873,0,0,-0.01015873,-1.55e-5,64.000016)"
     id="g4"
     style="fill:#fff;stroke:none">
    <path
       d="M 0,3150 V 0 H 3150 6300 V 3150 6300 H 3150 0 Z m 5077,251 c 160,-40 282,-111 394,-227 58,-62 144,-175 151,-202 2,-8 -272,-192 -438,-295 -6,-4 -30,22 -57,62 -81,118 -166,169 -296,178 -191,13 -314,-87 -313,-254 0,-49 7,-78 27,-118 42,-87 120,-139 365,-245 451,-194 644,-322 764,-504 134,-203 164,-527 73,-768 -100,-262 -348,-440 -697,-499 -108,-19 -364,-16 -480,5 -253,45 -493,170 -641,334 -58,64 -171,231 -164,243 3,4 29,20 58,37 28,16 134,77 234,135 l 181,105 38,-56 c 53,-81 169,-192 239,-229 201,-106 477,-91 613,31 58,53 82,108 82,189 0,73 -9,105 -47,160 -49,70 -149,129 -433,252 -325,140 -465,227 -593,365 -74,80 -144,208 -173,315 -24,89 -30,312 -11,402 67,314 304,533 646,598 111,21 369,13 478,-14 z m -1479,-263 2,-258 H 3190 2780 V 1715 550 h -290 -290 v 1165 1165 h -410 -410 v 253 c 0,140 3,257 7,260 3,4 502,6 1107,5 l 1101,-3 z"
       id="path2"
       inkscape:connector-curvature="0" />
  </g>
</svg>
